<svg width="74" height="74" viewBox="0 0 74 74" fill="none" xmlns="http://www.w3.org/2000/svg">
<rect width="74" height="74" rx="37" fill="#272D30"/>
<path fill-rule="evenodd" clip-rule="evenodd" d="M45.2089 24.4399H30.0068C27.3662 24.4399 25.2179 26.6266 25.2179 29.3151V34.465V44.7928C25.2179 47.4813 27.3662 49.6679 30.0068 49.6679H45.2094C47.8501 49.6679 49.9979 47.4813 49.9979 44.7928V34.4645V29.3146C49.9974 26.6261 47.8496 24.4399 45.2089 24.4399ZM46.5825 27.3472L47.1303 27.3452V27.9004V31.6213L42.9442 31.6351L42.9297 27.3594L46.5825 27.3472ZM34.071 34.4645C34.8648 33.3465 36.1524 32.6132 37.6079 32.6132C39.0634 32.6132 40.351 33.3465 41.1438 34.4645C41.6601 35.1942 41.9695 36.0868 41.9695 37.0537C41.9695 39.5019 40.0111 41.4937 37.6074 41.4937C35.2022 41.4937 33.2458 39.5019 33.2458 37.0537C33.2463 36.0868 33.5547 35.1942 34.071 34.4645ZM47.5832 44.7923C47.5832 46.1261 46.518 47.2095 45.2089 47.2095H30.0068C28.6973 47.2095 27.6321 46.1261 27.6321 44.7923V34.4645H31.3309C31.0115 35.2644 30.8321 36.1382 30.8321 37.0537C30.8321 40.8566 33.8711 43.9526 37.6079 43.9526C41.3442 43.9526 44.3832 40.8566 44.3832 37.0537C44.3832 36.1382 44.2028 35.2644 43.8834 34.4645H47.5832V44.7923Z" fill="white"/>
</svg>
