<svg width="74" height="74" viewBox="0 0 74 74" fill="none" xmlns="http://www.w3.org/2000/svg">
<rect width="74" height="74" rx="37" fill="#272D30"/>
<path fill-rule="evenodd" clip-rule="evenodd" d="M37 47C38 47 38 45.559 38 45C38 44 39 43 40 43C41 43 42.715 44.715 44 46C45 47 45 47 46 47C47 47 49 47 49 47C49 47 51 46.924 51 45C51 44.375 50.315 43.315 48 41C46 39 44.974 40.033 48 36C49.843 33.544 51.184 31.319 50.954 30.677C50.734 30.064 45.608 29.088 45 30C43 33 42.633 33.735 42 35C41 37 40.901 38 40 38C39.091 38 39 36.059 39 35C39 31.694 39.479 29.356 38 29C38 29 36 29 35 29C33.39 29 32 30 32 30C32 30 30.759 30.968 31 31C31.298 31.04 33 30.586 33 32C33 33 33 34 33 34C33 34 33.009 38 32 38C31 38 29 34 27 31C26.215 29.823 26 30 25 30C23.928 30 23.001 30.042 22 30.042C21 30.042 20.872 30.679 21 31C23 36 24.437 39.14 28.237 43.096C31.722 46.725 34.05 46.918 36 47C36.5 47.021 36 47 37 47Z" fill="white"/>
</svg>
