<?xml version="1.0" encoding="UTF-8" standalone="no"?>
<svg width="17px" height="18px" viewBox="0 0 17 18" version="1.1" xmlns="http://www.w3.org/2000/svg" xmlns:xlink="http://www.w3.org/1999/xlink">
    <!-- Generator: Sketch 3.7 (28169) - http://www.bohemiancoding.com/sketch -->
    <title>search</title>
    <desc>Created with Sketch.</desc>
    <defs></defs>
    <g id="Page-1" stroke="none" stroke-width="1" fill="none" fill-rule="evenodd">
        <g id="Главная" transform="translate(-1191.000000, -225.000000)" fill="#272D30">
            <g id="Group-18" transform="translate(899.000000, 193.000000)">
                <g id="1460298103_icon-111-search" transform="translate(292.204244, 32.403183)">
                    <g id="Group">
                        <g id="Page-1">
                            <g id="icon-111-search">
                                <path d="M10.5487208,12.1199771 C9.45680224,12.8980349 8.1207651,13.3556788 6.6778394,13.3556788 C2.98977035,13.3556788 0,10.3659084 0,6.6778394 C0,2.98977035 2.98977035,0 6.6778394,0 C10.3659084,0 13.3556788,2.98977035 13.3556788,6.6778394 C13.3556788,8.1207651 12.8980349,9.45680224 12.1199771,10.5487208 L16.5075543,14.9362979 C16.9398077,15.3685513 16.9362038,16.0601792 16.5073978,16.4889851 L16.4889851,16.5073978 C16.061276,16.9351069 15.3650174,16.9362738 14.9362979,16.5075543 L10.5487208,12.1199771 L10.5487208,12.1199771 L10.5487208,12.1199771 Z M6.6778394,11.7844225 C9.49812753,11.7844225 11.7844225,9.49812753 11.7844225,6.6778394 C11.7844225,3.85755127 9.49812753,1.57125633 6.6778394,1.57125633 C3.85755127,1.57125633 1.57125633,3.85755127 1.57125633,6.6778394 C1.57125633,9.49812753 3.85755127,11.7844225 6.6778394,11.7844225 L6.6778394,11.7844225 L6.6778394,11.7844225 Z" id="search"></path>
                            </g>
                        </g>
                    </g>
                </g>
            </g>
        </g>
    </g>
</svg>